<svg width="1300" height="1300" viewBox="0 0 1300 1300" fill="none" xmlns="http://www.w3.org/2000/svg">
<path d="M650 1300C290.71 1300 0 1008.86 0 650C0 290.71 291.141 0 650 0C1009.29 0 1300 291.141 1300 650C1300.43 1009.29 1009.29 1300 650 1300Z" fill="#B5E2BA"/>
<mask id="mask0_26_635" style="mask-type:alpha" maskUnits="userSpaceOnUse" x="0" y="0" width="1301" height="1300">
<path d="M650 1300C290.71 1300 0 1008.86 0 650C0 290.71 291.141 0 650 0C1009.29 0 1300 291.141 1300 650C1300.43 1009.29 1009.29 1300 650 1300Z" fill="#F7C0B5"/>
</mask>
<g mask="url(#mask0_26_635)">
<path d="M1014 1197.33C1010.97 1199.5 1007.5 1201.66 1004.47 1203.83C1001 1206 997.967 1208.16 994.5 1209.9C991.467 1211.63 988.867 1213.36 985.833 1215.1C985.4 1215.53 984.967 1215.53 984.534 1215.96C974.567 1222.03 964.167 1227.66 953.767 1232.86C950.733 1234.6 947.267 1236.33 944.233 1237.63C944.233 1237.63 943.8 1238.06 943.367 1238.06C939.9 1239.8 936.433 1241.53 932.967 1243.26C926.033 1246.73 918.667 1249.76 911.733 1252.8C908.267 1254.53 904.367 1255.83 900.9 1257.13C897.433 1258.43 893.533 1260.16 890.067 1261.46C886.6 1262.76 882.7 1264.5 879.233 1265.8C879.233 1265.8 879.233 1265.8 878.8 1265.8C875.333 1267.1 871.433 1268.4 867.967 1269.7C860.167 1272.3 851.933 1274.9 844.133 1277.5C841.533 1278.36 838.5 1279.23 835.9 1280.1C827.667 1282.7 819.433 1284.86 811.2 1286.6C808.167 1287.46 805.133 1287.9 801.667 1288.76C793.867 1290.5 785.633 1292.23 777.833 1293.96C776.1 1294.4 774.8 1294.4 773.067 1294.83C770.467 1295.26 767.433 1295.7 764.833 1296.13C760.933 1296.56 757.467 1297.43 753.567 1297.86C751.833 1298.3 750.1 1298.3 748.367 1298.73C746.2 1299.16 743.6 1299.6 741 1299.6C734.067 1300.46 726.7 1301.33 719.767 1302.2C717.6 1302.63 715 1302.63 712.833 1303.06H712.4C709.367 1303.5 706.333 1303.5 703.3 1303.93C700.267 1304.36 697.233 1304.36 694.2 1304.36C692.467 1304.36 690.3 1304.8 688.567 1304.8C685.1 1304.8 682.067 1305.23 679.033 1305.23C674.7 1305.23 670.8 1305.66 666.467 1305.66C662.133 1305.66 658.233 1305.66 653.9 1305.66C650.867 1305.66 647.833 1305.66 644.8 1305.66C462.367 1303.06 297.7 1225.5 180.7 1102.43C180.7 1102.43 180.7 1102 180.267 1102C193.7 1075.56 243.534 1027.9 295.534 988.465C361.4 938.632 454.567 907.865 454.567 907.865C454.567 907.865 515.667 897.898 742.3 945.132C915.2 981.532 988.867 1129.3 1014 1197.33Z" fill="#F7D3B5"/>
<path d="M790.4 1065.16C781.3 1109.8 722.367 1136.23 623.134 1096.36C501.367 1046.96 454.567 907.865 454.567 907.865C448.067 808.198 432.9 722.832 432.9 722.832C573.734 710.698 740.134 875.365 740.134 875.365L759.2 956.832C760.934 963.765 764.4 969.832 769.6 974.165C778.7 989.765 796.467 1036.56 790.4 1065.16Z" fill="#F7D3B5"/>
<path d="M769.6 974.599C686.833 970.265 625.733 958.132 560.3 840.699C615.767 889.665 681.2 908.299 750.1 916.965L759.2 956.832C760.933 964.199 764.4 970.265 769.6 974.599Z" fill="#EFBDA5"/>
<path d="M940.767 452.432C948.567 488.832 952.467 518.298 931.233 615.365C910 712.432 950.733 809.498 848.467 898.332C779.567 958.132 659.1 969.398 562.9 903.965C530.4 881.865 500.5 851.098 476.233 810.798C457.167 779.165 435.067 749.265 410.367 721.965C376.133 684.698 334.967 609.732 355.333 477.132C388.267 261.332 601.9 236.632 728 260.465C854.1 284.298 919.533 356.232 940.767 452.432Z" fill="#F7D3B5"/>
<path d="M526.067 621.865C526.067 621.865 512.633 556.865 449.367 564.665C394.767 571.598 375.7 702.465 499.633 738.865" fill="#F7D3B5"/>
<path d="M495.734 679.498C495.734 679.498 480.134 669.532 481.867 652.198C484.467 631.832 481.867 619.265 472.334 615.365C448.501 605.398 443.734 633.132 444.601 636.598" stroke="#423232" stroke-width="13" stroke-miterlimit="10" stroke-linecap="round" stroke-linejoin="round"/>
<path d="M826.367 721.532C826.367 721.532 842.833 722.398 858.433 703.765C867.1 693.365 874.467 680.365 869.7 676.465C864.933 672.132 786.5 684.265 781.3 694.665C776.1 705.065 806.433 721.532 826.367 721.532Z" fill="#EFBDA5"/>
<path d="M839.367 575.932C839.367 575.932 840.234 617.098 866.667 663.032C878.367 683.398 860.601 716.765 822.034 722.398" stroke="#423232" stroke-width="13" stroke-miterlimit="10" stroke-linecap="round" stroke-linejoin="round"/>
<path d="M1057.78 1116.61C996.25 1037.31 900.917 1004.37 848.483 984.873C844.15 963.206 835.917 939.373 822.917 916.406C802.984 928.54 780.017 937.64 756.184 942.406L759.65 956.706C761.383 963.64 770.05 995.706 756.617 1036.87C745.35 1071.54 699.85 1087.14 622.717 1052.04C472.35 984.006 455.017 907.306 455.017 907.306C452.417 865.706 448.084 826.706 444.184 795.073C397.384 805.473 343.217 826.706 313.75 871.34C277.35 925.94 263.917 981.406 267.384 1025.61C204.117 1065.91 106.184 1127.01 74.1168 1236.21C32.5168 1378.34 39.4502 1465.44 39.4502 1465.44H1159.18C1157.88 1465.87 1141.42 1224.51 1057.78 1116.61Z" fill="#27336E"/>
<path d="M388.283 974.473C388.283 974.473 414.716 1077.17 530.416 1148.24" stroke="#A6ABC3" stroke-width="13" stroke-miterlimit="10" stroke-linecap="round" stroke-linejoin="round"/>
<path d="M848.05 984.873C848.05 984.873 878.817 1117.91 811.65 1179.01" stroke="#A6ABC3" stroke-width="13" stroke-miterlimit="10" stroke-linecap="round" stroke-linejoin="round"/>
<path d="M639.183 1158.64C639.183 1158.64 616.65 1224.51 622.717 1270.01" stroke="#A6ABC3" stroke-width="13" stroke-miterlimit="10" stroke-linecap="round" stroke-linejoin="round"/>
<path d="M777.417 1154.74C777.417 1154.74 794.318 1191.57 806.451 1250.07" stroke="#A6ABC3" stroke-width="13" stroke-miterlimit="10" stroke-linecap="round" stroke-linejoin="round"/>
<path d="M266.517 1026.04C266.517 1026.04 302.05 1170.77 513.517 1213.24" stroke="#A6ABC3" stroke-width="13" stroke-miterlimit="10" stroke-linecap="round" stroke-linejoin="round"/>
<path d="M626.617 1279.97L607.55 1278.24C600.617 1277.37 595.417 1270.87 596.717 1263.94L603.217 1231.44C604.95 1222.34 613.617 1215.84 622.717 1217.14C631.817 1218.01 639.183 1225.81 639.183 1235.34L639.617 1268.71C639.617 1275.21 633.55 1280.84 626.617 1279.97Z" fill="white"/>
<path d="M825.517 1260.04L807.317 1266.54C800.384 1269.14 793.017 1264.81 791.717 1257.87L783.917 1225.81C781.75 1216.71 786.517 1207.61 795.617 1204.14C804.284 1201.11 814.25 1205.01 818.15 1213.24L832.45 1243.14C835.484 1249.64 832.45 1257.44 825.517 1260.04Z" fill="white"/>
<path d="M1016.62 1250.07C1016.62 1250.07 1040.88 1386.14 1031.35 1465.87" stroke="#544D4D" stroke-width="13" stroke-miterlimit="10" stroke-linecap="round" stroke-linejoin="round"/>
<path d="M699.71 590.249C699.71 590.683 699.71 591.116 699.71 591.116L699.277 603.249C698.843 613.649 690.177 621.449 679.777 621.016C669.377 620.583 661.577 611.483 662.443 601.516L662.877 589.383C662.877 587.216 663.743 584.616 664.61 582.883L699.277 584.616C699.277 586.349 699.71 588.083 699.71 590.249Z" fill="#423232"/>
<path d="M880.841 599.783L880.408 611.049C879.975 620.583 871.742 627.949 862.208 627.516C852.675 627.083 845.308 618.849 845.742 609.316L846.175 598.049C846.175 595.883 846.608 593.716 847.475 591.983L879.975 593.283C880.842 595.449 880.841 597.616 880.841 599.783Z" fill="#423232"/>
<path d="M743.042 530.882C752.576 532.182 759.942 522.216 756.476 512.682C754.742 507.482 751.709 502.716 746.942 499.682C732.209 490.582 677.176 489.716 648.142 510.516C622.576 529.582 699.709 524.816 743.042 530.882Z" fill="#423232"/>
<path d="M863.074 535.649C855.274 535.649 850.508 525.682 854.408 517.449C856.574 513.116 859.608 509.216 863.941 507.049C877.374 500.549 913.341 504.449 929.374 526.549C943.674 546.049 899.041 535.216 863.074 535.649Z" fill="#423232"/>
<path d="M727.875 585.482L698.842 584.182L664.175 582.882L656.375 582.449" stroke="#423232" stroke-width="13" stroke-miterlimit="10" stroke-linecap="round" stroke-linejoin="round"/>
<path d="M899.042 594.149L879.975 593.283L847.475 591.983H846.175" stroke="#423232" stroke-width="13" stroke-miterlimit="10" stroke-linecap="round" stroke-linejoin="round"/>
<path d="M793.697 770.764C768.997 785.497 725.231 769.464 704.864 744.764" stroke="#423232" stroke-width="13" stroke-miterlimit="10" stroke-linecap="round" stroke-linejoin="round"/>
<path d="M974.206 347.827C943.44 459.194 854.173 440.56 770.54 410.227C659.173 369.494 561.24 402.427 560.806 502.96C559.94 650.294 523.106 605.66 519.206 600.027C509.673 581.827 489.306 559.294 450.74 564.06C400.04 570.56 380.106 682.36 474.573 728.294C491.04 811.927 445.973 804.127 445.973 804.127C430.806 742.594 303.406 611.727 302.973 525.494C302.973 409.36 361.473 376.427 361.473 376.427C363.206 295.394 447.706 206.127 589.84 209.16C731.973 211.76 819.073 207.86 846.806 174.494C874.539 140.26 1004.97 236.46 974.206 347.827Z" fill="#423232"/>
<path d="M977.673 481.727C973.34 509.894 961.206 531.56 944.306 547.594C950.806 500.36 947.34 477.827 941.706 451.394C929.573 397.227 903.573 350.427 860.24 315.76C881.906 314.027 904.006 318.794 923.94 331.36C923.94 330.927 995.44 359.96 977.673 481.727Z" fill="#423232"/>
<path d="M749.232 669.067H648.266C621.832 669.067 600.599 647.834 600.599 621.4V580.234C600.599 553.8 621.832 532.567 648.266 532.567H749.232C775.666 532.567 796.899 553.8 796.899 580.234V621.4C796.899 647.834 775.232 669.067 749.232 669.067Z" stroke="#423232" stroke-width="13" stroke-miterlimit="10" stroke-linecap="round" stroke-linejoin="round"/>
<path d="M923.432 532.567H873.599C856.266 532.567 841.966 546.867 841.966 564.2V601.9C848.032 623.567 856.699 644.367 869.699 663C870.999 663 872.299 663.434 873.599 663.434H923.432C940.766 663.434 955.066 649.134 955.066 631.8V564.2C955.499 546.434 941.199 532.567 923.432 532.567Z" stroke="#423232" stroke-width="13" stroke-miterlimit="10" stroke-linecap="round" stroke-linejoin="round"/>
<path d="M796.899 572C811.633 570.267 830.266 568.967 845.866 570.7" stroke="#423232" stroke-width="13" stroke-miterlimit="10" stroke-linecap="round" stroke-linejoin="round"/>
<path d="M600.599 575.034L500.066 578.5" stroke="#423232" stroke-width="13" stroke-miterlimit="10" stroke-linecap="round" stroke-linejoin="round"/>
</g>
</svg>
