<svg width="21" height="20" viewBox="0 0 21 20" fill="none" xmlns="http://www.w3.org/2000/svg">
<path d="M10.7672 13.125C12.1479 13.125 13.2672 12.0057 13.2672 10.625C13.2672 9.24429 12.1479 8.125 10.7672 8.125C9.3865 8.125 8.26721 9.24429 8.26721 10.625C8.26721 12.0057 9.3865 13.125 10.7672 13.125Z" stroke="#F9F9FF" stroke-linecap="round" stroke-linejoin="round"/>
<path d="M7.01721 15C7.45384 14.4178 8.02001 13.9453 8.6709 13.6199C9.32178 13.2944 10.0395 13.125 10.7672 13.125C11.4949 13.125 12.2126 13.2944 12.8635 13.6199C13.5144 13.9453 14.0806 14.4178 14.5172 15" stroke="#F9F9FF" stroke-linecap="round" stroke-linejoin="round"/>
<path d="M17.0172 16.875V3.125C17.0172 2.77982 16.7374 2.5 16.3922 2.5L5.14221 2.5C4.79703 2.5 4.51721 2.77982 4.51721 3.125V16.875C4.51721 17.2202 4.79703 17.5 5.14221 17.5H16.3922C16.7374 17.5 17.0172 17.2202 17.0172 16.875Z" stroke="#F9F9FF" stroke-linecap="round" stroke-linejoin="round"/>
<path d="M8.26721 5H13.2672" stroke="#F9F9FF" stroke-linecap="round" stroke-linejoin="round"/>
</svg>
