<svg viewBox="0 0 32 32" xmlns="http://www.w3.org/2000/svg"><path d="M16 3.011V20.33M16 20.33v4.33a4.33 4.33 0 1 1-4.33-4.33ZM16 20.33h-4.306a4.354 4.354 0 0 1-.048-8.707L16 11.574" fill="none" stroke="#ffffff" stroke-linecap="round" stroke-linejoin="round" class="stroke-000000"></path><path d="M20.33 20.33a4.353 4.353 0 1 1 4.33-4.354 4.35 4.35 0 0 1-4.33 4.354Z" fill="none" stroke="#ffffff" stroke-linecap="round" stroke-linejoin="round" class="stroke-000000"></path><path d="M11.563 3.011h8.898a4.294 4.294 0 0 1 .024 8.587l-8.898.05a4.318 4.318 0 1 1-.024-8.637Z" fill="none" stroke="#ffffff" stroke-linecap="round" stroke-linejoin="round" class="stroke-000000"></path></svg>