<svg width="25" height="24" viewBox="0 0 25 24" fill="none" xmlns="http://www.w3.org/2000/svg">
<path d="M24.2966 10.9305L13.8172 0.452798C13.6737 0.309248 13.5033 0.195374 13.3158 0.117681C13.1283 0.0399886 12.9274 0 12.7244 0C12.5214 0 12.3205 0.0399886 12.1329 0.117681C11.9454 0.195374 11.7751 0.309248 11.6316 0.452798L9.4565 2.62784L12.2166 5.38788C12.5421 5.27675 12.8924 5.25936 13.2273 5.33771C13.5622 5.41606 13.8684 5.58698 14.1108 5.83098C14.3532 6.07498 14.5222 6.38222 14.5984 6.71764C14.6746 7.05305 14.655 7.40314 14.5417 7.72793L17.2013 10.389C17.5948 10.2504 18.0238 10.25 18.4175 10.3878C18.8113 10.5256 19.1464 10.7933 19.3676 11.1469C19.5889 11.5006 19.6832 11.919 19.6349 12.3334C19.5866 12.7477 19.3986 13.1333 19.1019 13.4265C18.8016 13.7287 18.4057 13.9172 17.9818 13.9599C17.5578 14.0026 17.1323 13.8968 16.7777 13.6605C16.4232 13.4243 16.1617 13.0723 16.0378 12.6646C15.914 12.257 15.9356 11.819 16.0988 11.4255L13.6192 8.94445V15.4741C13.9961 15.6606 14.2977 15.9707 14.4736 16.3527C14.6496 16.7346 14.6894 17.1653 14.5863 17.5731C14.4832 17.9808 14.2435 18.3408 13.9071 18.5932C13.5707 18.8456 13.158 18.9751 12.7377 18.9601C12.3174 18.9451 11.915 18.7865 11.5974 18.5107C11.2799 18.235 11.0665 17.8587 10.9927 17.4447C10.919 17.0307 10.9894 16.6039 11.1922 16.2355C11.3949 15.8671 11.7179 15.5793 12.1071 15.4201V8.83045C11.8825 8.73843 11.6784 8.60287 11.5065 8.43158C11.3345 8.2603 11.1982 8.05667 11.1053 7.83245C11.0124 7.60823 10.9649 7.36784 10.9654 7.12515C10.9658 6.88246 11.0143 6.64226 11.1081 6.4184L8.38846 3.69735L1.20315 10.8825C1.05959 11.026 0.945715 11.1963 0.86802 11.3838C0.790325 11.5713 0.750336 11.7723 0.750336 11.9753C0.750336 12.1782 0.790325 12.3792 0.86802 12.5667C0.945715 12.7542 1.05959 12.9245 1.20315 13.068L11.6826 23.5472C11.8261 23.6908 11.9964 23.8046 12.1839 23.8823C12.3715 23.96 12.5724 24 12.7754 24C12.9784 24 13.1793 23.96 13.3668 23.8823C13.5544 23.8046 13.7247 23.6908 13.8682 23.5472L24.2981 13.1175C24.5877 12.8276 24.7503 12.4345 24.7503 12.0248C24.7503 11.615 24.5877 11.2219 24.2981 10.932" fill="#F9F9FF"/>
</svg>
