<svg width="21" height="20" viewBox="0 0 21 20" fill="none" xmlns="http://www.w3.org/2000/svg">
<path d="M6.79529 18.75C7.04181 18.751 7.28609 18.7032 7.51404 18.6094C7.74199 18.5155 7.9491 18.3774 8.12342 18.2031C8.29773 18.0288 8.43581 17.8217 8.52967 17.5938C8.62353 17.3658 8.67132 17.1215 8.67029 16.875V13.125" stroke="#F9F9FF" stroke-linecap="round" stroke-linejoin="round"/>
<path d="M13.6703 18.75C13.4238 18.751 13.1795 18.7032 12.9516 18.6094C12.7236 18.5155 12.5165 18.3774 12.3422 18.2031C12.1679 18.0288 12.0298 17.8217 11.9359 17.5938C11.8421 17.3658 11.7943 17.1215 11.7953 16.875V13.125" stroke="#F9F9FF" stroke-linecap="round" stroke-linejoin="round"/>
<path d="M12.1078 13.125H13.3578C13.6043 13.124 13.8486 13.1717 14.0765 13.2656C14.3045 13.3595 14.5116 13.4975 14.6859 13.6719C14.8602 13.8462 14.9983 14.0533 15.0922 14.2812C15.186 14.5092 15.2338 14.7535 15.2328 15V15.625C15.2318 15.8715 15.2795 16.1158 15.3734 16.3437C15.4673 16.5717 15.6053 16.7788 15.7797 16.9531C15.954 17.1274 16.1611 17.2655 16.389 17.3594C16.617 17.4532 16.8613 17.501 17.1078 17.5" stroke="#F9F9FF" stroke-linecap="round" stroke-linejoin="round"/>
<path d="M8.35779 13.125H7.10779C6.86127 13.124 6.61699 13.1717 6.38904 13.2656C6.16108 13.3595 5.95397 13.4975 5.77966 13.6719C5.60534 13.8462 5.46727 14.0533 5.37341 14.2812C5.27955 14.5092 5.23175 14.7535 5.23279 15V15.625C5.23382 15.8715 5.18603 16.1158 5.09217 16.3437C4.99831 16.5717 4.86023 16.7788 4.68592 16.9531C4.5116 17.1274 4.30449 17.2655 4.07654 17.3594C3.84859 17.4532 3.60431 17.501 3.35779 17.5" stroke="#F9F9FF" stroke-linecap="round" stroke-linejoin="round"/>
<path d="M8.96716 5C8.59999 4.4254 8.09408 3.95246 7.49607 3.62479C6.89806 3.29711 6.22719 3.12523 5.54529 3.125C5.24209 3.64983 5.06016 4.23584 5.01285 4.84011C4.96553 5.44437 5.05403 6.05157 5.27185 6.61719C4.84467 7.24692 4.61359 7.98907 4.60779 8.75V9.375C4.60779 10.3696 5.00288 11.3234 5.70614 12.0267C6.4094 12.7299 7.36323 13.125 8.35779 13.125H12.1078C13.1023 13.125 14.0562 12.7299 14.7594 12.0267C15.4627 11.3234 15.8578 10.3696 15.8578 9.375V8.75C15.852 7.98907 15.6209 7.24692 15.1937 6.61719C15.4115 6.05157 15.5 5.44437 15.4527 4.84011C15.4054 4.23584 15.2235 3.64983 14.9203 3.125C14.2384 3.12523 13.5675 3.29711 12.9695 3.62479C12.3715 3.95246 11.8656 4.4254 11.4984 5H8.96716Z" stroke="#F9F9FF" stroke-linecap="round" stroke-linejoin="round"/>
</svg>
