<svg width="24" height="24" viewBox="0 0 24 24" fill="none" xmlns="http://www.w3.org/2000/svg">
<path fill-rule="evenodd" clip-rule="evenodd" d="M4 0C1.79086 0 0 1.79086 0 4V20C0 22.2091 1.79086 24 4 24H20C22.2091 24 24 22.2091 24 20V4C24 1.79086 22.2091 0 20 0H4ZM9.40401 20C9.77667 20.0867 10.145 20.13 10.509 20.13C11.2197 20.13 11.7917 19.9133 12.225 19.48C12.667 19.038 12.888 18.3317 12.888 17.361V10.445H11.445V16.997C11.445 17.465 11.4017 17.8247 11.315 18.076C11.237 18.3273 11.1157 18.5007 10.951 18.596C10.7863 18.6913 10.5697 18.739 10.301 18.739C10.015 18.739 9.77234 18.6957 9.573 18.609C9.38234 18.5137 9.209 18.375 9.05299 18.193L8.468 19.532C8.71933 19.7487 9.03133 19.9047 9.40401 20ZM15.6562 19.857C16.1675 20.039 16.6832 20.13 17.2032 20.13C17.7925 20.13 18.3168 20.026 18.7762 19.818C19.2442 19.61 19.6082 19.3023 19.8682 18.895C20.1369 18.4877 20.2712 17.9937 20.2712 17.413C20.2712 17.0403 20.1932 16.698 20.0372 16.386C19.8812 16.074 19.6775 15.8053 19.4262 15.58C19.2442 15.4067 19.0492 15.2593 18.8412 15.138C18.6332 15.008 18.3342 14.8347 17.9442 14.618C17.5368 14.3927 17.2119 14.202 16.9692 14.046C16.7352 13.89 16.5402 13.708 16.3842 13.5C16.2282 13.2833 16.1502 13.0407 16.1502 12.772C16.1502 12.3907 16.2715 12.1047 16.5142 11.914C16.7655 11.7147 17.1078 11.615 17.5412 11.615C17.8792 11.615 18.1955 11.68 18.4902 11.81C18.7935 11.9313 19.0275 12.0787 19.1922 12.252L19.8812 11.069C19.2572 10.5577 18.4989 10.302 17.6062 10.302C16.7742 10.302 16.0852 10.523 15.5392 10.965C14.9932 11.3983 14.7202 12.0267 14.7202 12.85C14.7202 13.8467 15.1405 14.6267 15.9812 15.19C16.1632 15.3113 16.5012 15.4933 16.9952 15.736C17.4112 15.944 17.7319 16.1217 17.9572 16.269C18.1825 16.4077 18.3732 16.5853 18.5292 16.802C18.6852 17.0187 18.7632 17.2743 18.7632 17.569C18.7632 17.9503 18.6159 18.2493 18.3212 18.466C18.0352 18.6827 17.6625 18.791 17.2032 18.791C16.8479 18.791 16.4752 18.7043 16.0852 18.531C15.7039 18.349 15.4222 18.1757 15.2402 18.011L14.5512 19.246C14.7765 19.4713 15.1449 19.675 15.6562 19.857Z" fill="#F9F9FF"/>
</svg>
