<svg width="32" height="26" viewBox="0 0 32 26" fill="none" xmlns="http://www.w3.org/2000/svg">
<rect x="1" y="0.5" width="29.9997" height="25" rx="3" stroke="#F9F9FF"/>
<line x1="1.02828" y1="4.97819" x2="31" y2="4.97819" stroke="#F9F9FF"/>
<ellipse cx="28.4512" cy="2.96743" rx="0.55386" ry="0.680908" fill="#F9F9FF"/>
<ellipse cx="26.3529" cy="2.96743" rx="0.553861" ry="0.680908" fill="#F9F9FF"/>
<ellipse cx="24.2545" cy="2.96743" rx="0.55386" ry="0.680908" fill="#F9F9FF"/>
<path d="M5.97265 14.351V13.7917C6.33486 13.7917 6.58735 13.7182 6.7301 13.5712C6.87499 13.422 6.94743 13.1802 6.94743 12.8457V12.0307C6.94743 11.6706 6.99218 11.3755 7.08167 11.1454C7.17328 10.9153 7.30645 10.7363 7.48117 10.6085C7.65588 10.4806 7.86895 10.3922 8.12037 10.3432C8.37179 10.2921 8.6573 10.2665 8.97691 10.2665V11.155C8.72549 11.155 8.53266 11.1902 8.39843 11.2605C8.26419 11.3287 8.17151 11.4341 8.12037 11.5769C8.07137 11.7196 8.04686 11.9018 8.04686 12.1234V13.1717C8.04686 13.3358 8.01917 13.4892 7.96377 13.6319C7.90837 13.7747 7.80716 13.9004 7.66015 14.009C7.51313 14.1156 7.30326 14.1997 7.03053 14.2615C6.75993 14.3212 6.4073 14.351 5.97265 14.351ZM8.97691 18.3876C8.6573 18.3876 8.37179 18.362 8.12037 18.3109C7.86895 18.2619 7.65588 18.1735 7.48117 18.0456C7.30645 17.9178 7.17328 17.7388 7.08167 17.5087C6.99218 17.2786 6.94743 16.9835 6.94743 16.6234V15.8116C6.94743 15.4771 6.87499 15.2363 6.7301 15.0893C6.58735 14.9402 6.33486 14.8656 5.97265 14.8656V14.3063C6.4073 14.3063 6.75993 14.3372 7.03053 14.399C7.30326 14.4586 7.51313 14.5428 7.66015 14.6515C7.80716 14.758 7.90837 14.8826 7.96377 15.0254C8.01917 15.1681 8.04686 15.3205 8.04686 15.4824V16.5307C8.04686 16.7523 8.07137 16.9345 8.12037 17.0772C8.17151 17.22 8.26419 17.3265 8.39843 17.3968C8.53266 17.4671 8.72549 17.5023 8.97691 17.5023V18.3876ZM5.97265 14.8656V13.7917H6.98578V14.8656H5.97265ZM12.4454 11.0559H13.6215V15.6582C13.6194 16.0801 13.5299 16.4434 13.3531 16.748C13.1762 17.0506 12.9291 17.2839 12.6116 17.448C12.2962 17.6099 11.9287 17.6909 11.509 17.6909C11.1254 17.6909 10.7803 17.6227 10.4734 17.4863C10.1688 17.3478 9.92692 17.1433 9.74795 16.8727C9.56897 16.6021 9.47948 16.2654 9.47948 15.8627H10.6588C10.6609 16.0396 10.6993 16.1919 10.7739 16.3198C10.8506 16.4476 10.956 16.5456 11.0903 16.6138C11.2245 16.682 11.379 16.7161 11.5537 16.7161C11.7433 16.7161 11.9042 16.6767 12.0363 16.5978C12.1684 16.5169 12.2685 16.3975 12.3367 16.2399C12.407 16.0822 12.4433 15.8883 12.4454 15.6582V11.0559ZM15.9075 16.7065L15.8659 17.0581C15.8361 17.3265 15.7828 17.5992 15.7061 17.8762C15.6316 18.1554 15.5527 18.4121 15.4696 18.6465C15.3865 18.8809 15.3194 19.0652 15.2683 19.1994H14.4884C14.5183 19.0694 14.5588 18.8926 14.6099 18.6689C14.6632 18.4451 14.7143 18.1937 14.7633 17.9146C14.8123 17.6355 14.8453 17.3521 14.8624 17.0644L14.8848 16.7065H15.9075ZM19.2849 17.6014V11.0559H23.4781V12.0499H20.4706V13.8269H23.1904V14.8208H20.4706V17.6014H19.2849ZM27.1567 14.3063V14.8656C26.7945 14.8656 26.5409 14.9402 26.396 15.0893C26.2533 15.2363 26.1819 15.4771 26.1819 15.8116V16.6234C26.1819 16.9835 26.1361 17.2786 26.0445 17.5087C25.955 17.7388 25.8229 17.9178 25.6482 18.0456C25.4734 18.1735 25.2604 18.2619 25.009 18.3109C24.7575 18.362 24.472 18.3876 24.1524 18.3876V17.5023C24.4038 17.5023 24.5967 17.4671 24.7309 17.3968C24.8651 17.3265 24.9568 17.22 25.0058 17.0772C25.0569 16.9345 25.0825 16.7523 25.0825 16.5307V15.4824C25.0825 15.3205 25.1102 15.1681 25.1656 15.0254C25.221 14.8826 25.3222 14.758 25.4692 14.6515C25.6162 14.5428 25.825 14.4586 26.0956 14.399C26.3683 14.3372 26.722 14.3063 27.1567 14.3063ZM24.1524 10.2665C24.472 10.2665 24.7575 10.2921 25.009 10.3432C25.2604 10.3922 25.4734 10.4806 25.6482 10.6085C25.8229 10.7363 25.955 10.9153 26.0445 11.1454C26.1361 11.3755 26.1819 11.6706 26.1819 12.0307V12.8457C26.1819 13.1802 26.2533 13.422 26.396 13.5712C26.5409 13.7182 26.7945 13.7917 27.1567 13.7917V14.351C26.722 14.351 26.3683 14.3212 26.0956 14.2615C25.825 14.1997 25.6162 14.1156 25.4692 14.009C25.3222 13.9004 25.221 13.7747 25.1656 13.6319C25.1102 13.4892 25.0825 13.3358 25.0825 13.1717V12.1234C25.0825 11.9018 25.0569 11.7196 25.0058 11.5769C24.9568 11.4341 24.8651 11.3287 24.7309 11.2605C24.5967 11.1902 24.4038 11.155 24.1524 11.155V10.2665ZM27.1567 13.7917V14.8656H26.1435V13.7917H27.1567Z" fill="white"/>
</svg>
