<svg width="21" height="20" viewBox="0 0 21 20" fill="none" xmlns="http://www.w3.org/2000/svg">
<path d="M10.4655 6.87501C10.4655 5.15626 11.9108 3.72657 13.6296 3.75001C14.2315 3.75696 14.8186 3.9376 15.3203 4.27022C15.822 4.60285 16.217 5.07329 16.4577 5.62501H19.2155L16.6921 8.14845C16.5292 10.6833 15.4072 13.0609 13.554 14.798C11.7008 16.5351 9.25557 17.5013 6.71553 17.5C4.21553 17.5 3.59053 16.5625 3.59053 16.5625C3.59053 16.5625 6.09053 15.625 7.34053 13.75C7.34053 13.75 2.34053 11.25 3.59053 4.37501C3.59053 4.37501 6.71553 7.50001 10.4655 8.12501V6.87501Z" stroke="#F9F9FF" stroke-linecap="round" stroke-linejoin="round"/>
</svg>
